<?xml version="1.0" encoding="UTF-8" standalone="no"?>
<svg width="23px" height="13px" viewBox="0 0 23 13" version="1.1" xmlns="http://www.w3.org/2000/svg" xmlns:xlink="http://www.w3.org/1999/xlink" xmlns:sketch="http://www.bohemiancoding.com/sketch/ns">
    <!-- Generator: Sketch 3.2.2 (9983) - http://www.bohemiancoding.com/sketch -->
    <title>Imported Layers + Rectangle 2029</title>
    <desc>Created with Sketch.</desc>
    <defs></defs>
    <g id="Page-1" stroke="none" stroke-width="1" fill="none" fill-rule="evenodd" sketch:type="MSPage">
        <g id="Imported-Layers-+-Rectangle-2029" sketch:type="MSLayerGroup" fill="#949494">
            <path d="M20.9019428,9.49956798 C20.6670784,9.37096413 18.9737045,8.50812425 18.3380016,8.16041753 C18.2286025,8.1005851 18.0359974,8.12779352 17.9656694,8.26644557 C17.7843794,8.623809 16.9916418,9.13874641 15.8038796,9.21600007 C14.5999887,9.13874641 13.8284434,8.49331295 13.6471533,8.13594952 C13.5768253,7.99729747 13.3892839,7.97008905 13.2798847,8.02992148 C12.6441819,8.37762821 10.950808,9.37096413 10.7159436,9.49956798 C9.1371575,10.3644958 8.94549018,11.644662 9.01075459,12.2574062 C9.06282859,12.7467664 9.52124231,12.7033112 9.52124231,12.7033112 L22.0966441,12.7033112 C22.0966441,12.7033112 22.5550578,12.7467664 22.6071943,12.2574062 C22.6724587,11.644662 22.4807289,10.3644958 20.9019428,9.49956798 Z M13.5461936,5.11491684 C13.7818706,5.8180948 14.0959399,6.35750022 14.4285759,6.74716142 L14.4285759,7.27704062 L14.4297637,7.27704062 C14.4292635,7.27704062 14.4285759,7.2977895 14.4285759,7.30542351 C14.4285759,7.69501947 15.135357,8.14418687 15.9299699,8.14418687 C16.7246454,8.14418687 17.3063988,7.69358401 17.3063988,7.30398806 C17.3063988,7.29635404 17.3057112,7.27704062 17.3052111,7.27704062 L17.3042109,7.27704062 L17.3042109,6.56864282 C17.5955877,6.17748092 17.8448302,5.68518458 18.0308713,5.12281186 C18.2663608,5.15373942 18.5487357,4.85992757 18.6819526,4.43157429 C18.824484,3.97320692 18.7422784,3.53467495 18.498287,3.45207095 C18.4517142,3.43628092 18.4024534,3.43484547 18.3525048,3.44574189 C18.3570683,3.18409731 18.3315002,2.92812931 18.2783635,2.68279674 C18.4918481,2.13184242 18.1130144,1.0311735 17.2574505,0.422670429 C16.3592522,-0.216172976 15.1845553,-0.0577507733 14.8279141,0.414122938 C14.4355149,0.383847855 13.8421964,0.670351929 13.498308,1.21321549 C13.2129325,1.6637531 13.1779872,2.20452872 13.2862612,2.58244528 C13.2228722,2.8592274 13.1944284,3.15082082 13.2063685,3.45057024 C13.1505437,3.43536745 13.0955315,3.43451923 13.0436451,3.45207095 C12.7996537,3.53467495 12.7174481,3.97320692 12.8599795,4.43157429 C12.9999479,4.88152466 13.3043276,5.18231805 13.5461936,5.11491684 Z" id="Fill-1" sketch:type="MSShapeGroup"></path>
            <rect id="Rectangle-2027" sketch:type="MSShapeGroup" x="4" y="1" width="2" height="10" rx="3"></rect>
            <rect id="Rectangle-2029" sketch:type="MSShapeGroup" transform="translate(5.000000, 6.000000) rotate(-90.000000) translate(-5.000000, -6.000000) " x="4" y="1" width="2" height="10" rx="3"></rect>
        </g>
    </g>
</svg>
